<?xml version="1.0" encoding="UTF-8"?>
<!DOCTYPE svg PUBLIC "-//W3C//DTD SVG 1.1//EN" "http://www.w3.org/Graphics/SVG/1.1/DTD/svg11.dtd">
<!-- Creator: CorelDRAW 2017 -->
<svg xmlns="http://www.w3.org/2000/svg" xml:space="preserve" width="15.5936mm" height="14.4534mm" version="1.1" style="shape-rendering:geometricPrecision; text-rendering:geometricPrecision; image-rendering:optimizeQuality; fill-rule:evenodd; clip-rule:evenodd"
viewBox="0 0 467 433"
 xmlns:xlink="http://www.w3.org/1999/xlink">
 <defs>
  <style type="text/css">
   <![CDATA[
    .str1 {stroke:#4B8031;stroke-width:2.28292}
    .str0 {stroke:#4B941D;stroke-width:2.28292}
    .fil67 {fill:none}
    .fil65 {fill:#27C3CE}
    .fil66 {fill:#27C3CF}
    .fil63 {fill:#28C3CD}
    .fil64 {fill:#28C3CE}
    .fil61 {fill:#29C3CC}
    .fil62 {fill:#29C3CD}
    .fil59 {fill:#2AC3CB}
    .fil60 {fill:#2AC3CC}
    .fil57 {fill:#2BC3CA}
    .fil58 {fill:#2BC3CB}
    .fil55 {fill:#2CC3C9}
    .fil56 {fill:#2CC3CA}
    .fil54 {fill:#2CC4C9}
    .fil52 {fill:#2DC4C8}
    .fil53 {fill:#2DC4C9}
    .fil50 {fill:#2EC4C7}
    .fil51 {fill:#2EC4C8}
    .fil48 {fill:#2FC4C5}
    .fil49 {fill:#2FC4C6}
    .fil46 {fill:#30C4C4}
    .fil47 {fill:#30C4C5}
    .fil44 {fill:#31C4C3}
    .fil45 {fill:#31C4C4}
    .fil43 {fill:#32C4C3}
    .fil42 {fill:#33C4C2}
    .fil40 {fill:#34C4C0}
    .fil41 {fill:#34C4C1}
    .fil39 {fill:#35C4BF}
    .fil38 {fill:#36C5BE}
    .fil37 {fill:#38C5BC}
    .fil36 {fill:#39C5BA}
    .fil35 {fill:#3BC5B8}
    .fil34 {fill:#3DC5B6}
    .fil33 {fill:#40C6B3}
    .fil32 {fill:#43C6AF}
    .fil31 {fill:#47C6AB}
    .fil30 {fill:#4DC7A5}
    .fil29 {fill:#53C79D}
    .fil28 {fill:#58C898}
    .fil27 {fill:#5CC894}
    .fil26 {fill:#5FC990}
    .fil25 {fill:#61C98D}
    .fil24 {fill:#63C98B}
    .fil23 {fill:#65C989}
    .fil22 {fill:#66C987}
    .fil21 {fill:#68CA86}
    .fil20 {fill:#69CA85}
    .fil19 {fill:#6ACA84}
    .fil17 {fill:#6BCA82}
    .fil18 {fill:#6BCA83}
    .fil16 {fill:#6CCA81}
    .fil15 {fill:#6DCA80}
    .fil14 {fill:#6ECA7F}
    .fil13 {fill:#6FCA7E}
    .fil12 {fill:#70CA7D}
    .fil11 {fill:#71CA7C}
    .fil10 {fill:#71CB7B}
    .fil8 {fill:#72CB7A}
    .fil9 {fill:#72CB7B}
    .fil6 {fill:#73CB79}
    .fil7 {fill:#73CB7A}
    .fil4 {fill:#74CB78}
    .fil5 {fill:#74CB79}
    .fil2 {fill:#75CB77}
    .fil3 {fill:#75CB78}
    .fil0 {fill:#76CB76}
    .fil1 {fill:#76CB77}
    .fil69 {fill:url(#id2)}
    .fil70 {fill:url(#id3)}
    .fil68 {fill:url(#id4)}
   ]]>
  </style>
     <clipPath id="id0">
      <path d="M125 216c-39,0 -72,0 -109,0 -6,0 11,0 -13,0 -1,0 -1,-2 -1,-3 0,-5 0,-5 0,-10 0,-5 4,-8 10,-13 55,-50 128,-122 185,-175 8,-8 27,-28 27,-4 0,15 0,9 0,22 0,22 0,25 -4,30 -2,3 -5,7 -9,10 -3,3 -8,6 -12,9 -2,1 -21,10 -22,11 -7,5 -10,7 -17,13 -4,3 -8,7 -11,11 -3,5 -6,7 -9,12 -3,4 -6,9 -8,14 -2,4 -4,10 -5,16 -1,6 -2,12 -2,19 0,4 0,10 0,15 0,6 2,20 1,19z"/>
     </clipPath>
     <clipPath id="id1">
      <path d="M343 216c39,0 72,0 109,0 6,0 -11,0 13,0 1,0 1,-2 1,-3 0,-5 0,-5 0,-10 0,-5 -4,-8 -10,-13 -55,-50 -128,-122 -185,-175 -8,-8 -27,-28 -27,-4 0,15 0,9 0,22 0,22 0,25 4,30 2,3 5,7 9,10 3,3 8,6 12,9 2,1 21,10 22,11 7,5 10,7 17,13 4,3 8,7 11,11 3,5 6,7 9,12 3,4 6,9 8,14 2,4 4,10 5,16 1,6 2,12 2,19 0,4 0,10 0,15 0,6 -2,20 -1,19z"/>
     </clipPath>
  <linearGradient id="id2" gradientUnits="userSpaceOnUse" x1="9" y1="333" x2="224" y2="333">
   <stop offset="0" style="stop-opacity:1; stop-color:#6DC97E"/>
   <stop offset="1" style="stop-opacity:1; stop-color:#98D257"/>
  </linearGradient>
  <linearGradient id="id3" gradientUnits="userSpaceOnUse" xlink:href="#id2" x1="244" y1="339" x2="454" y2="339">
  </linearGradient>
  <linearGradient id="id4" gradientUnits="userSpaceOnUse" x1="172" y1="97" x2="172" y2="281">
   <stop offset="0" style="stop-opacity:1; stop-color:#1CC7D9"/>
   <stop offset="-123.624" style="stop-opacity:1; stop-color:#1CC7D9"/>
   <stop offset="1" style="stop-opacity:1; stop-color:#8AD64A"/>
  </linearGradient>
 </defs>
 <g id="Слой_x0020_1">
  <metadata id="CorelCorpID_0Corel-Layer"/>
  <g id="_2768259864400">
   <g>
    <g style="clip-path:url(#id0)">
     <polygon class="fil0" points="15,256 15,256 284,161 284,161 "/>
     <polygon id="1" class="fil0" points="15,256 15,255 284,160 284,161 "/>
     <polygon id="2" class="fil0" points="15,255 15,254 284,159 284,160 "/>
     <polygon id="3" class="fil0" points="15,255 14,253 283,158 284,160 "/>
     <polygon id="4" class="fil0" points="15,254 14,253 283,158 284,159 "/>
     <polygon id="5" class="fil0" points="14,253 14,252 283,157 283,158 "/>
     <polygon id="6" class="fil0" points="14,252 14,251 283,156 283,157 "/>
     <polygon id="7" class="fil0" points="14,251 13,250 282,155 283,156 "/>
     <polygon id="8" class="fil0" points="13,251 13,249 282,154 282,156 "/>
     <polygon id="9" class="fil1" points="13,250 13,249 282,154 282,155 "/>
     <polygon id="10" class="fil2" points="13,249 12,248 281,153 282,154 "/>
     <polygon id="11" class="fil2" points="13,248 12,247 281,152 282,153 "/>
     <polygon id="12" class="fil2" points="12,247 12,246 281,151 281,152 "/>
     <polygon id="13" class="fil2" points="12,247 12,245 281,150 281,152 "/>
     <polygon id="14" class="fil2" points="12,246 11,245 280,150 281,151 "/>
     <polygon id="15" class="fil2" points="11,245 11,244 280,149 280,150 "/>
     <polygon id="16" class="fil2" points="11,244 11,243 280,148 280,149 "/>
     <polygon id="17" class="fil2" points="11,243 11,242 279,147 280,148 "/>
     <polygon id="18" class="fil2" points="11,243 10,241 279,146 280,148 "/>
     <polygon id="19" class="fil2" points="10,242 10,241 279,146 279,147 "/>
     <polygon id="20" class="fil2" points="10,241 10,240 279,145 279,146 "/>
     <polygon id="21" class="fil2" points="10,240 9,239 278,144 279,145 "/>
     <polygon id="22" class="fil2" points="10,239 9,238 278,143 278,144 "/>
     <polygon id="23" class="fil3" points="9,239 9,237 278,142 278,144 "/>
     <polygon id="24" class="fil3" points="9,238 9,237 277,142 278,143 "/>
     <polygon id="25" class="fil4" points="9,237 8,236 277,141 278,142 "/>
     <polygon id="26" class="fil4" points="8,236 8,235 277,140 277,141 "/>
     <polygon id="27" class="fil4" points="8,235 8,234 277,139 277,140 "/>
     <polygon id="28" class="fil4" points="8,235 7,233 276,138 277,140 "/>
     <polygon id="29" class="fil4" points="8,234 7,233 276,138 276,139 "/>
     <polygon id="30" class="fil4" points="7,233 7,232 276,137 276,138 "/>
     <polygon id="31" class="fil4" points="7,232 7,231 275,136 276,137 "/>
     <polygon id="32" class="fil5" points="7,231 6,230 275,135 276,136 "/>
     <polygon id="33" class="fil5" points="6,231 6,229 275,134 275,136 "/>
     <polygon id="34" class="fil5" points="6,230 6,229 275,134 275,135 "/>
     <polygon id="35" class="fil6" points="6,229 5,228 274,133 275,134 "/>
     <polygon id="36" class="fil6" points="6,228 5,227 274,132 274,133 "/>
     <polygon id="37" class="fil6" points="5,227 5,226 274,131 274,132 "/>
     <polygon id="38" class="fil6" points="5,227 5,225 274,130 274,132 "/>
     <polygon id="39" class="fil7" points="5,226 4,225 273,130 274,131 "/>
     <polygon id="40" class="fil7" points="4,225 4,224 273,129 273,130 "/>
     <polygon id="41" class="fil7" points="4,224 4,223 273,128 273,129 "/>
     <polygon id="42" class="fil8" points="4,223 3,222 272,127 273,128 "/>
     <polygon id="43" class="fil8" points="4,223 3,221 272,126 273,128 "/>
     <polygon id="44" class="fil9" points="3,222 3,221 272,126 272,127 "/>
     <polygon id="45" class="fil9" points="3,221 3,220 272,125 272,126 "/>
     <polygon id="46" class="fil9" points="3,220 2,219 271,124 272,125 "/>
     <polygon id="47" class="fil10" points="2,219 2,218 271,123 271,124 "/>
     <polygon id="48" class="fil11" points="2,219 2,217 271,122 271,124 "/>
     <polygon id="49" class="fil11" points="2,218 1,217 270,122 271,123 "/>
     <polygon id="50" class="fil11" points="2,217 1,216 270,121 271,122 "/>
     <polygon id="51" class="fil12" points="1,216 1,215 270,120 270,121 "/>
     <polygon id="52" class="fil12" points="1,215 1,214 270,119 270,120 "/>
     <polygon id="53" class="fil12" points="1,215 0,213 269,118 270,120 "/>
     <polygon id="54" class="fil13" points="1,214 0,213 269,118 269,119 "/>
     <polygon id="55" class="fil13" points="0,213 0,212 269,117 269,118 "/>
     <polygon id="56" class="fil14" points="0,212 0,211 268,116 269,117 "/>
     <polygon id="57" class="fil14" points="0,211 -1,210 268,115 269,117 "/>
     <polygon id="58" class="fil15" points="-1,211 -1,210 268,115 268,116 "/>
     <polygon id="59" class="fil15" points="-1,210 -1,209 268,114 268,115 "/>
     <polygon id="60" class="fil16" points="-1,209 -2,208 267,113 268,114 "/>
     <polygon id="61" class="fil17" points="-1,208 -2,207 267,112 267,113 "/>
     <polygon id="62" class="fil18" points="-2,208 -2,206 267,111 267,113 "/>
     <polygon id="63" class="fil19" points="-2,207 -2,206 266,111 267,112 "/>
     <polygon id="64" class="fil20" points="-2,206 -3,205 266,110 267,111 "/>
     <polygon id="65" class="fil21" points="-3,205 -3,204 266,109 266,110 "/>
     <polygon id="66" class="fil22" points="-3,204 -3,203 266,108 266,109 "/>
     <polygon id="67" class="fil23" points="-3,204 -4,202 265,107 266,109 "/>
     <polygon id="68" class="fil24" points="-3,203 -4,202 265,107 265,108 "/>
     <polygon id="69" class="fil25" points="-4,202 -4,201 265,106 265,107 "/>
     <polygon id="70" class="fil26" points="-4,201 -4,200 265,105 265,106 "/>
     <polygon id="71" class="fil27" points="-4,200 -5,199 264,104 265,105 "/>
     <polygon id="72" class="fil28" points="-5,200 -5,198 264,103 264,105 "/>
     <polygon id="73" class="fil29" points="-5,199 -5,198 264,103 264,104 "/>
     <polygon id="74" class="fil30" points="-5,198 -6,197 263,102 264,103 "/>
     <polygon id="75" class="fil31" points="-5,197 -6,196 263,101 264,102 "/>
     <polygon id="76" class="fil32" points="-6,196 -6,195 263,100 263,101 "/>
     <polygon id="77" class="fil33" points="-6,196 -6,194 263,99 263,101 "/>
     <polygon id="78" class="fil34" points="-6,195 -7,194 262,99 263,100 "/>
     <polygon id="79" class="fil35" points="-7,194 -7,193 262,98 262,99 "/>
     <polygon id="80" class="fil36" points="-7,193 -7,192 262,97 262,98 "/>
     <polygon id="81" class="fil37" points="-7,192 -8,191 261,96 262,97 "/>
     <polygon id="82" class="fil38" points="-7,192 -8,190 261,95 262,97 "/>
     <polygon id="83" class="fil39" points="-8,191 -8,190 261,95 261,96 "/>
     <polygon id="84" class="fil40" points="-8,190 -8,189 261,94 261,95 "/>
     <polygon id="85" class="fil41" points="-8,189 -9,188 260,93 261,94 "/>
     <polygon id="86" class="fil42" points="-9,188 -9,187 260,92 260,93 "/>
     <polygon id="87" class="fil43" points="-9,188 -9,186 260,91 260,93 "/>
     <polygon id="88" class="fil44" points="-9,187 -9,186 259,91 260,92 "/>
     <polygon id="89" class="fil45" points="-9,186 -10,185 259,90 260,91 "/>
     <polygon id="90" class="fil46" points="-10,185 -10,184 259,89 259,90 "/>
     <polygon id="91" class="fil47" points="-10,184 -10,183 259,88 259,89 "/>
     <polygon id="92" class="fil48" points="-10,184 -11,182 258,87 259,89 "/>
     <polygon id="93" class="fil49" points="-10,183 -11,182 258,87 258,88 "/>
     <polygon id="94" class="fil49" points="-11,182 -11,181 258,86 258,87 "/>
     <polygon id="95" class="fil50" points="-11,181 -11,180 257,85 258,86 "/>
     <polygon id="96" class="fil50" points="-11,180 -12,179 257,84 258,85 "/>
     <polygon id="97" class="fil50" points="-12,180 -12,178 257,83 257,85 "/>
     <polygon id="98" class="fil51" points="-12,179 -12,178 257,83 257,84 "/>
     <polygon id="99" class="fil52" points="-12,178 -13,177 256,82 257,83 "/>
     <polygon id="100" class="fil52" points="-12,177 -13,176 256,81 256,82 "/>
     <polygon id="101" class="fil52" points="-13,176 -13,175 256,80 256,81 "/>
     <polygon id="102" class="fil53" points="-13,176 -13,174 255,79 256,81 "/>
     <polygon id="103" class="fil54" points="-13,175 -14,174 255,79 256,80 "/>
     <polygon id="104" class="fil54" points="-14,174 -14,173 255,78 255,79 "/>
     <polygon id="105" class="fil54" points="-14,173 -14,172 255,77 255,78 "/>
     <polygon id="106" class="fil55" points="-14,172 -15,171 254,76 255,77 "/>
     <polygon id="107" class="fil56" points="-14,172 -15,170 254,75 255,77 "/>
     <polygon id="108" class="fil56" points="-15,171 -15,170 254,75 254,76 "/>
     <polygon id="109" class="fil57" points="-15,170 -15,169 254,74 254,75 "/>
     <polygon id="110" class="fil57" points="-15,169 -16,168 253,73 254,74 "/>
     <polygon id="111" class="fil57" points="-16,168 -16,167 253,72 253,73 "/>
     <polygon id="112" class="fil57" points="-16,168 -16,166 253,71 253,73 "/>
     <polygon id="113" class="fil58" points="-16,167 -17,166 252,71 253,72 "/>
     <polygon id="114" class="fil58" points="-16,166 -17,165 252,70 253,71 "/>
     <polygon id="115" class="fil58" points="-17,165 -17,164 252,69 252,70 "/>
     <polygon id="116" class="fil58" points="-17,164 -17,163 252,68 252,69 "/>
     <polygon id="117" class="fil58" points="-17,164 -18,162 251,67 252,69 "/>
     <polygon id="118" class="fil59" points="-18,163 -18,162 251,67 251,68 "/>
     <polygon id="119" class="fil59" points="-18,162 -18,161 251,66 251,67 "/>
     <polygon id="120" class="fil59" points="-18,161 -18,160 250,65 251,66 "/>
     <polygon id="121" class="fil59" points="-18,160 -19,159 250,64 251,65 "/>
     <polygon id="122" class="fil60" points="-19,160 -19,158 250,64 250,65 "/>
     <polygon id="123" class="fil60" points="-19,159 -19,158 250,63 250,64 "/>
     <polygon id="124" class="fil60" points="-19,158 -20,157 249,62 250,63 "/>
     <polygon id="125" class="fil60" points="-19,157 -20,156 249,61 249,62 "/>
     <polygon id="126" class="fil60" points="-20,157 -20,155 249,60 249,62 "/>
     <polygon id="127" class="fil60" points="-20,156 -20,155 248,60 249,61 "/>
     <polygon id="128" class="fil60" points="-20,155 -21,154 248,59 249,60 "/>
     <polygon id="129" class="fil60" points="-21,154 -21,153 248,58 248,59 "/>
     <polygon id="130" class="fil60" points="-21,153 -21,152 248,57 248,58 "/>
     <polygon id="131" class="fil61" points="-21,153 -22,151 247,56 248,58 "/>
     <polygon id="132" class="fil61" points="-21,152 -22,151 247,56 247,57 "/>
     <polygon id="133" class="fil61" points="-22,151 -22,150 247,55 247,56 "/>
     <polygon id="134" class="fil61" points="-22,150 -22,149 246,54 247,55 "/>
     <polygon id="135" class="fil62" points="-22,149 -23,148 246,53 247,54 "/>
     <polygon id="136" class="fil62" points="-23,149 -23,147 246,52 246,54 "/>
     <polygon id="137" class="fil62" points="-23,148 -23,147 246,52 246,53 "/>
     <polygon id="138" class="fil62" points="-23,147 -24,146 245,51 246,52 "/>
     <polygon id="139" class="fil62" points="-23,146 -24,145 245,50 245,51 "/>
     <polygon id="140" class="fil62" points="-24,145 -24,144 245,49 245,50 "/>
     <polygon id="141" class="fil62" points="-24,145 -24,143 245,48 245,50 "/>
     <polygon id="142" class="fil62" points="-24,144 -25,143 244,48 245,49 "/>
     <polygon id="143" class="fil62" points="-25,143 -25,142 244,47 244,48 "/>
     <polygon id="144" class="fil62" points="-25,142 -25,141 244,46 244,47 "/>
     <polygon id="145" class="fil62" points="-25,141 -26,140 243,45 244,46 "/>
     <polygon id="146" class="fil62" points="-25,141 -26,139 243,44 244,46 "/>
     <polygon id="147" class="fil62" points="-26,140 -26,139 243,44 243,45 "/>
     <polygon id="148" class="fil62" points="-26,139 -26,138 243,43 243,44 "/>
     <polygon id="149" class="fil62" points="-26,138 -27,137 242,42 243,43 "/>
     <polygon id="150" class="fil62" points="-27,137 -27,136 242,41 242,42 "/>
     <polygon id="151" class="fil62" points="-27,137 -27,135 242,40 242,42 "/>
     <polygon id="152" class="fil62" points="-27,136 -28,135 241,40 242,41 "/>
     <polygon id="153" class="fil63" points="-27,135 -28,134 241,39 242,40 "/>
     <polygon id="154" class="fil63" points="-28,134 -28,133 241,38 241,39 "/>
     <polygon id="155" class="fil63" points="-28,133 -28,132 241,37 241,38 "/>
     <polygon id="156" class="fil63" points="-28,133 -29,131 240,36 241,38 "/>
     <polygon id="157" class="fil63" points="-28,132 -29,131 240,36 240,37 "/>
     <polygon id="158" class="fil64" points="-29,131 -29,130 240,35 240,36 "/>
     <polygon id="159" class="fil64" points="-29,130 -29,129 239,34 240,35 "/>
     <polygon id="160" class="fil64" points="-29,129 -30,128 239,33 240,34 "/>
     <polygon id="161" class="fil64" points="-30,129 -30,127 239,32 239,34 "/>
     <polygon id="162" class="fil64" points="-30,128 -30,127 239,32 239,33 "/>
     <polygon id="163" class="fil64" points="-30,127 -31,126 238,31 239,32 "/>
     <polygon id="164" class="fil64" points="-30,126 -31,125 238,30 238,31 "/>
     <polygon id="165" class="fil64" points="-31,125 -31,124 238,29 238,30 "/>
     <polygon id="166" class="fil64" points="-31,125 -31,123 237,28 238,30 "/>
     <polygon id="167" class="fil64" points="-31,124 -32,123 237,28 238,29 "/>
     <polygon id="168" class="fil64" points="-32,123 -32,122 237,27 237,28 "/>
     <polygon id="169" class="fil64" points="-32,122 -32,121 237,26 237,27 "/>
     <polygon id="170" class="fil64" points="-32,121 -33,120 236,25 237,26 "/>
     <polygon id="171" class="fil64" points="-32,121 -33,119 236,24 236,26 "/>
     <polygon id="172" class="fil64" points="-33,120 -33,119 236,24 236,25 "/>
     <polygon id="173" class="fil64" points="-33,119 -33,118 236,23 236,24 "/>
     <polygon id="174" class="fil64" points="-33,118 -34,117 235,22 236,23 "/>
     <polygon id="175" class="fil64" points="-34,117 -34,116 235,21 235,22 "/>
     <polygon id="176" class="fil64" points="-34,117 -34,115 235,20 235,22 "/>
     <polygon id="177" class="fil64" points="-34,116 -35,115 234,20 235,21 "/>
     <polygon id="178" class="fil64" points="-34,115 -35,114 234,19 235,20 "/>
     <polygon id="179" class="fil64" points="-35,114 -35,113 234,18 234,19 "/>
     <polygon id="180" class="fil64" points="-35,113 -35,112 234,17 234,18 "/>
     <polygon id="181" class="fil64" points="-35,113 -36,111 233,16 234,18 "/>
     <polygon id="182" class="fil64" points="-36,112 -36,111 233,16 233,17 "/>
     <polygon id="183" class="fil64" points="-36,111 -36,110 233,15 233,16 "/>
     <polygon id="184" class="fil64" points="-36,110 -37,109 232,14 233,15 "/>
     <polygon id="185" class="fil64" points="-36,109 -37,108 232,13 233,14 "/>
     <polygon id="186" class="fil64" points="-37,109 -37,107 232,12 232,14 "/>
     <polygon id="187" class="fil64" points="-37,108 -37,107 232,12 232,13 "/>
     <polygon id="188" class="fil64" points="-37,107 -38,106 231,11 232,12 "/>
     <polygon id="189" class="fil64" points="-38,106 -38,105 231,10 231,11 "/>
     <polygon id="190" class="fil64" points="-38,105 -38,104 231,9 231,10 "/>
     <polygon id="191" class="fil64" points="-38,105 -38,103 230,9 231,10 "/>
     <polygon id="192" class="fil64" points="-38,104 -39,103 230,8 231,9 "/>
     <polygon id="193" class="fil64" points="-39,103 -39,102 230,7 230,8 "/>
     <polygon id="194" class="fil64" points="-39,102 -39,101 230,6 230,7 "/>
     <polygon id="195" class="fil64" points="-39,102 -40,100 229,5 230,7 "/>
     <polygon id="196" class="fil64" points="-39,101 -40,100 229,5 229,6 "/>
     <polygon id="197" class="fil64" points="-40,100 -40,99 229,4 229,5 "/>
     <polygon id="198" class="fil64" points="-40,99 -40,98 228,3 229,4 "/>
     <polygon id="199" class="fil64" points="-40,98 -41,97 228,2 229,3 "/>
     <polygon id="200" class="fil65" points="-41,98 -41,96 228,1 228,3 "/>
     <polygon id="201" class="fil65" points="-41,97 -41,96 228,1 228,2 "/>
     <polygon id="202" class="fil65" points="-41,96 -42,95 227,0 228,1 "/>
     <polygon id="203" class="fil65" points="-41,95 -42,94 227,-1 227,0 "/>
     <polygon id="204" class="fil66" points="-42,94 -42,93 227,-2 227,-1 "/>
     <polygon id="205" class="fil66" points="-42,94 -42,92 226,-3 227,-1 "/>
     <polygon id="206" class="fil66" points="-42,93 -43,92 226,-3 227,-2 "/>
     <polygon id="207" class="fil66" points="-43,92 -43,91 226,-4 226,-3 "/>
     <polygon id="208" class="fil66" points="-43,91 -43,90 226,-5 226,-4 "/>
     <polygon id="209" class="fil66" points="-43,90 -44,89 225,-6 226,-5 "/>
     <polygon id="210" class="fil66" points="-43,90 -44,88 225,-7 226,-5 "/>
     <polygon id="211" class="fil66" points="-44,89 -44,88 225,-7 225,-6 "/>
     <polygon id="212" class="fil66" points="-44,88 -44,87 225,-8 225,-7 "/>
     <polygon id="213" class="fil66" points="-44,87 -45,86 224,-9 225,-8 "/>
     <polygon id="214" class="fil66" points="-45,86 -45,85 224,-10 224,-9 "/>
     <polygon id="215" class="fil66" points="-45,86 -45,84 224,-11 224,-9 "/>
     <polygon id="216" class="fil66" points="-45,85 -46,84 223,-11 224,-10 "/>
     <polygon id="217" class="fil66" points="-45,84 -46,84 223,-11 224,-11 "/>
    </g>
    <path id="218" class="fil67 str0" d="M125 216c-39,0 -72,0 -109,0 -6,0 11,0 -13,0 -1,0 -1,-2 -1,-3 0,-5 0,-5 0,-10 0,-5 4,-8 10,-13 55,-50 128,-122 185,-175 8,-8 27,-28 27,-4 0,15 0,9 0,22 0,22 0,25 -4,30 -2,3 -5,7 -9,10 -3,3 -8,6 -12,9 -2,1 -21,10 -22,11 -7,5 -10,7 -17,13 -4,3 -8,7 -11,11 -3,5 -6,7 -9,12 -3,4 -6,9 -8,14 -2,4 -4,10 -5,16 -1,6 -2,12 -2,19 0,4 0,10 0,15 0,6 2,20 1,19z"/>
   </g>
   <path class="fil68 str1" d="M230 99c-6,0 -11,1 -15,2 -4,1 -7,2 -10,4 -4,2 -6,3 -10,6 -4,3 -7,6 -10,9 -3,3 -4,5 -6,9 -2,4 -4,8 -6,13 -2,5 -3,13 -3,20 0,8 1,13 3,20 2,6 4,9 7,15 3,6 51,87 54,87 3,0 51,-78 54,-85 3,-7 6,-11 8,-19 2,-8 3,-17 2,-22 0,-5 -1,-9 -2,-13 -1,-4 -2,-6 -3,-9 -1,-4 -4,-9 -7,-13 -3,-4 -5,-6 -9,-9 -4,-3 -12,-9 -18,-12 -6,-2 -9,-3 -15,-4 -6,-1 -10,-1 -15,-1zm1 35c4,0 8,0 12,1 4,1 7,3 10,6 3,3 5,5 7,9 2,4 3,7 3,11 0,3 0,5 -1,9 -1,3 -3,8 -6,12 -3,4 -5,6 -9,8 -4,2 -8,4 -13,4 -5,0 -10,-1 -13,-2 -3,-1 -4,-2 -7,-4 -2,-2 -4,-3 -6,-6 -2,-3 -4,-8 -5,-12 -1,-4 -1,-7 0,-11 1,-4 3,-9 6,-12 3,-4 6,-6 10,-8 4,-2 6,-3 10,-3z"/>
   <path class="fil69 str1" d="M224 424c0,-20 0,-69 0,-99 0,-11 -1,-19 -2,-21 -3,-4 -59,-54 -61,-54 -2,0 -3,9 -3,19 0,12 0,25 0,27 0,5 0,3 0,5 0,5 11,13 24,24 13,11 12,11 21,19 2,2 4,4 8,8 0,6 0,11 0,16 0,2 -7,-3 -14,-11 -27,-26 -99,-93 -110,-104 -6,-6 -15,-18 -21,-18 -19,0 -36,0 -55,0 0,1 -2,4 -1,5 2,4 13,13 20,21 13,14 33,32 56,53 39,38 81,77 104,100 9,9 16,17 19,17 8,0 10,0 13,0 2,0 2,-4 2,-8z"/>
   <path class="fil70 str1" d="M244 424c0,-20 0,-69 0,-99 0,-11 1,-19 2,-21 3,-4 59,-54 61,-54 2,0 3,9 3,19 0,12 0,25 0,27 0,5 0,3 0,5 0,5 -11,13 -24,24 -13,11 -12,11 -21,19 -2,2 -4,4 -8,8 0,6 0,11 0,16 0,2 7,-3 14,-11 27,-26 99,-93 110,-104 5,-5 9,-7 15,-7 19,0 37,0 56,0 0,1 1,4 -1,5 -4,4 -4,3 -13,11 -14,13 -34,30 -57,52 -39,38 -81,77 -104,100 -9,9 -16,17 -19,17 -8,0 -10,0 -13,0 -2,0 -2,-4 -2,-8z"/>
   <g>
    <g style="clip-path:url(#id1)">
     <polygon class="fil0" points="183,161 183,161 452,256 452,256 "/>
     <polygon id="1" class="fil0" points="183,161 183,160 452,255 452,256 "/>
     <polygon id="2" class="fil0" points="183,160 184,159 452,254 452,255 "/>
     <polygon id="3" class="fil0" points="183,160 184,158 453,253 452,255 "/>
     <polygon id="4" class="fil0" points="184,159 184,158 453,253 453,254 "/>
     <polygon id="5" class="fil0" points="184,158 184,157 453,252 453,253 "/>
     <polygon id="6" class="fil0" points="184,157 185,156 454,251 453,252 "/>
     <polygon id="7" class="fil0" points="185,156 185,155 454,250 453,251 "/>
     <polygon id="8" class="fil0" points="185,156 185,154 454,249 454,251 "/>
     <polygon id="9" class="fil1" points="185,155 186,154 454,249 454,250 "/>
     <polygon id="10" class="fil2" points="185,154 186,153 455,248 454,249 "/>
     <polygon id="11" class="fil2" points="186,153 186,152 455,247 455,248 "/>
     <polygon id="12" class="fil2" points="186,152 186,151 455,246 455,247 "/>
     <polygon id="13" class="fil2" points="186,152 187,150 456,245 455,247 "/>
     <polygon id="14" class="fil2" points="186,151 187,150 456,245 455,246 "/>
     <polygon id="15" class="fil2" points="187,150 187,149 456,244 456,245 "/>
     <polygon id="16" class="fil2" points="187,149 187,148 456,243 456,244 "/>
     <polygon id="17" class="fil2" points="187,148 188,147 457,242 456,243 "/>
     <polygon id="18" class="fil2" points="188,148 188,146 457,241 457,243 "/>
     <polygon id="19" class="fil2" points="188,147 188,146 457,241 457,242 "/>
     <polygon id="20" class="fil2" points="188,146 189,145 458,240 457,241 "/>
     <polygon id="21" class="fil2" points="188,145 189,144 458,239 457,240 "/>
     <polygon id="22" class="fil2" points="189,144 189,143 458,238 458,239 "/>
     <polygon id="23" class="fil3" points="189,144 189,142 458,237 458,239 "/>
     <polygon id="24" class="fil3" points="189,143 190,142 459,237 458,238 "/>
     <polygon id="25" class="fil4" points="190,142 190,141 459,236 459,237 "/>
     <polygon id="26" class="fil4" points="190,141 190,140 459,235 459,236 "/>
     <polygon id="27" class="fil4" points="190,140 191,139 459,234 459,235 "/>
     <polygon id="28" class="fil4" points="190,140 191,138 460,233 459,235 "/>
     <polygon id="29" class="fil4" points="191,139 191,138 460,233 460,234 "/>
     <polygon id="30" class="fil4" points="191,138 191,137 460,232 460,233 "/>
     <polygon id="31" class="fil4" points="191,137 192,136 461,231 460,232 "/>
     <polygon id="32" class="fil5" points="192,136 192,135 461,230 460,231 "/>
     <polygon id="33" class="fil5" points="192,136 192,134 461,229 461,231 "/>
     <polygon id="34" class="fil5" points="192,135 193,134 461,229 461,230 "/>
     <polygon id="35" class="fil6" points="192,134 193,133 462,228 461,229 "/>
     <polygon id="36" class="fil6" points="193,133 193,132 462,227 462,228 "/>
     <polygon id="37" class="fil6" points="193,132 193,131 462,226 462,227 "/>
     <polygon id="38" class="fil6" points="193,132 194,130 463,225 462,227 "/>
     <polygon id="39" class="fil7" points="194,131 194,130 463,225 462,226 "/>
     <polygon id="40" class="fil7" points="194,130 194,129 463,224 463,225 "/>
     <polygon id="41" class="fil7" points="194,129 195,128 463,223 463,224 "/>
     <polygon id="42" class="fil8" points="194,128 195,127 464,222 463,223 "/>
     <polygon id="43" class="fil8" points="195,128 195,126 464,221 464,223 "/>
     <polygon id="44" class="fil9" points="195,127 195,126 464,221 464,222 "/>
     <polygon id="45" class="fil9" points="195,126 196,125 465,220 464,221 "/>
     <polygon id="46" class="fil9" points="195,125 196,124 465,219 464,220 "/>
     <polygon id="47" class="fil10" points="196,124 196,123 465,218 465,219 "/>
     <polygon id="48" class="fil11" points="196,124 196,122 465,217 465,219 "/>
     <polygon id="49" class="fil11" points="196,123 197,122 466,217 465,218 "/>
     <polygon id="50" class="fil11" points="197,122 197,121 466,216 466,217 "/>
     <polygon id="51" class="fil12" points="197,121 197,120 466,215 466,216 "/>
     <polygon id="52" class="fil12" points="197,120 198,119 467,214 466,215 "/>
     <polygon id="53" class="fil12" points="197,120 198,118 467,213 466,215 "/>
     <polygon id="54" class="fil13" points="198,119 198,118 467,213 467,214 "/>
     <polygon id="55" class="fil13" points="198,118 198,117 467,212 467,213 "/>
     <polygon id="56" class="fil14" points="198,117 199,116 468,211 467,212 "/>
     <polygon id="57" class="fil14" points="199,117 199,115 468,210 468,211 "/>
     <polygon id="58" class="fil15" points="199,116 199,115 468,210 468,211 "/>
     <polygon id="59" class="fil15" points="199,115 200,114 469,209 468,210 "/>
     <polygon id="60" class="fil16" points="199,114 200,113 469,208 468,209 "/>
     <polygon id="61" class="fil17" points="200,113 200,112 469,207 469,208 "/>
     <polygon id="62" class="fil18" points="200,113 200,111 469,206 469,208 "/>
     <polygon id="63" class="fil19" points="200,112 201,111 470,206 469,207 "/>
     <polygon id="64" class="fil20" points="201,111 201,110 470,205 469,206 "/>
     <polygon id="65" class="fil21" points="201,110 201,109 470,204 470,205 "/>
     <polygon id="66" class="fil22" points="201,109 202,108 470,203 470,204 "/>
     <polygon id="67" class="fil23" points="201,109 202,107 471,202 470,204 "/>
     <polygon id="68" class="fil24" points="202,108 202,107 471,202 471,203 "/>
     <polygon id="69" class="fil25" points="202,107 202,106 471,201 471,202 "/>
     <polygon id="70" class="fil26" points="202,106 203,105 472,200 471,201 "/>
     <polygon id="71" class="fil27" points="203,105 203,104 472,199 471,200 "/>
     <polygon id="72" class="fil28" points="203,105 203,103 472,198 472,200 "/>
     <polygon id="73" class="fil29" points="203,104 204,103 472,198 472,199 "/>
     <polygon id="74" class="fil30" points="203,103 204,102 473,197 472,198 "/>
     <polygon id="75" class="fil31" points="204,102 204,101 473,196 473,197 "/>
     <polygon id="76" class="fil32" points="204,101 204,100 473,195 473,196 "/>
     <polygon id="77" class="fil33" points="204,101 205,99 474,194 473,196 "/>
     <polygon id="78" class="fil34" points="205,100 205,99 474,194 473,195 "/>
     <polygon id="79" class="fil35" points="205,99 205,98 474,193 474,194 "/>
     <polygon id="80" class="fil36" points="205,98 205,97 474,192 474,193 "/>
     <polygon id="81" class="fil37" points="205,97 206,96 475,191 474,192 "/>
     <polygon id="82" class="fil38" points="206,97 206,95 475,190 475,192 "/>
     <polygon id="83" class="fil39" points="206,96 206,95 475,190 475,191 "/>
     <polygon id="84" class="fil40" points="206,95 207,94 476,189 475,190 "/>
     <polygon id="85" class="fil41" points="206,94 207,93 476,188 475,189 "/>
     <polygon id="86" class="fil42" points="207,93 207,92 476,187 476,188 "/>
     <polygon id="87" class="fil43" points="207,93 207,91 476,186 476,188 "/>
     <polygon id="88" class="fil44" points="207,92 208,91 477,186 476,187 "/>
     <polygon id="89" class="fil45" points="208,91 208,90 477,185 477,186 "/>
     <polygon id="90" class="fil46" points="208,90 208,89 477,184 477,185 "/>
     <polygon id="91" class="fil47" points="208,89 209,88 478,183 477,184 "/>
     <polygon id="92" class="fil48" points="208,89 209,87 478,182 477,184 "/>
     <polygon id="93" class="fil49" points="209,88 209,87 478,182 478,183 "/>
     <polygon id="94" class="fil49" points="209,87 209,86 478,181 478,182 "/>
     <polygon id="95" class="fil50" points="209,86 210,85 479,180 478,181 "/>
     <polygon id="96" class="fil50" points="210,85 210,84 479,179 478,180 "/>
     <polygon id="97" class="fil50" points="210,85 210,83 479,178 479,180 "/>
     <polygon id="98" class="fil51" points="210,84 211,83 479,178 479,179 "/>
     <polygon id="99" class="fil52" points="210,83 211,82 480,177 479,178 "/>
     <polygon id="100" class="fil52" points="211,82 211,81 480,176 480,177 "/>
     <polygon id="101" class="fil52" points="211,81 211,80 480,175 480,176 "/>
     <polygon id="102" class="fil53" points="211,81 212,79 481,174 480,176 "/>
     <polygon id="103" class="fil54" points="212,80 212,79 481,174 480,175 "/>
     <polygon id="104" class="fil54" points="212,79 212,78 481,173 481,174 "/>
     <polygon id="105" class="fil54" points="212,78 213,77 481,172 481,173 "/>
     <polygon id="106" class="fil55" points="212,77 213,76 482,171 481,172 "/>
     <polygon id="107" class="fil56" points="213,77 213,75 482,170 482,172 "/>
     <polygon id="108" class="fil56" points="213,76 213,75 482,170 482,171 "/>
     <polygon id="109" class="fil57" points="213,75 214,74 483,169 482,170 "/>
     <polygon id="110" class="fil57" points="214,74 214,73 483,168 482,169 "/>
     <polygon id="111" class="fil57" points="214,73 214,72 483,167 483,168 "/>
     <polygon id="112" class="fil57" points="214,73 214,71 483,166 483,168 "/>
     <polygon id="113" class="fil58" points="214,72 215,71 484,166 483,167 "/>
     <polygon id="114" class="fil58" points="215,71 215,70 484,165 484,166 "/>
     <polygon id="115" class="fil58" points="215,70 215,69 484,164 484,165 "/>
     <polygon id="116" class="fil58" points="215,69 216,68 485,163 484,164 "/>
     <polygon id="117" class="fil58" points="215,69 216,67 485,162 484,164 "/>
     <polygon id="118" class="fil59" points="216,68 216,67 485,162 485,163 "/>
     <polygon id="119" class="fil59" points="216,67 216,66 485,161 485,162 "/>
     <polygon id="120" class="fil59" points="216,66 217,65 486,160 485,161 "/>
     <polygon id="121" class="fil59" points="217,65 217,64 486,159 486,160 "/>
     <polygon id="122" class="fil60" points="217,65 217,64 486,158 486,160 "/>
     <polygon id="123" class="fil60" points="217,64 218,63 487,158 486,159 "/>
     <polygon id="124" class="fil60" points="217,63 218,62 487,157 486,158 "/>
     <polygon id="125" class="fil60" points="218,62 218,61 487,156 487,157 "/>
     <polygon id="126" class="fil60" points="218,62 218,60 487,155 487,157 "/>
     <polygon id="127" class="fil60" points="218,61 219,60 488,155 487,156 "/>
     <polygon id="128" class="fil60" points="219,60 219,59 488,154 488,155 "/>
     <polygon id="129" class="fil60" points="219,59 219,58 488,153 488,154 "/>
     <polygon id="130" class="fil60" points="219,58 220,57 488,152 488,153 "/>
     <polygon id="131" class="fil61" points="219,58 220,56 489,151 488,153 "/>
     <polygon id="132" class="fil61" points="220,57 220,56 489,151 489,152 "/>
     <polygon id="133" class="fil61" points="220,56 220,55 489,150 489,151 "/>
     <polygon id="134" class="fil61" points="220,55 221,54 490,149 489,150 "/>
     <polygon id="135" class="fil62" points="221,54 221,53 490,148 489,149 "/>
     <polygon id="136" class="fil62" points="221,54 221,52 490,147 490,149 "/>
     <polygon id="137" class="fil62" points="221,53 222,52 490,147 490,148 "/>
     <polygon id="138" class="fil62" points="221,52 222,51 491,146 490,147 "/>
     <polygon id="139" class="fil62" points="222,51 222,50 491,145 491,146 "/>
     <polygon id="140" class="fil62" points="222,50 222,49 491,144 491,145 "/>
     <polygon id="141" class="fil62" points="222,50 223,48 492,143 491,145 "/>
     <polygon id="142" class="fil62" points="223,49 223,48 492,143 491,144 "/>
     <polygon id="143" class="fil62" points="223,48 223,47 492,142 492,143 "/>
     <polygon id="144" class="fil62" points="223,47 224,46 492,141 492,142 "/>
     <polygon id="145" class="fil62" points="223,46 224,45 493,140 492,141 "/>
     <polygon id="146" class="fil62" points="224,46 224,44 493,139 493,141 "/>
     <polygon id="147" class="fil62" points="224,45 224,44 493,139 493,140 "/>
     <polygon id="148" class="fil62" points="224,44 225,43 494,138 493,139 "/>
     <polygon id="149" class="fil62" points="224,43 225,42 494,137 493,138 "/>
     <polygon id="150" class="fil62" points="225,42 225,41 494,136 494,137 "/>
     <polygon id="151" class="fil62" points="225,42 225,40 494,135 494,137 "/>
     <polygon id="152" class="fil62" points="225,41 226,40 495,135 494,136 "/>
     <polygon id="153" class="fil63" points="226,40 226,39 495,134 495,135 "/>
     <polygon id="154" class="fil63" points="226,39 226,38 495,133 495,134 "/>
     <polygon id="155" class="fil63" points="226,38 227,37 496,132 495,133 "/>
     <polygon id="156" class="fil63" points="226,38 227,36 496,131 495,133 "/>
     <polygon id="157" class="fil63" points="227,37 227,36 496,131 496,132 "/>
     <polygon id="158" class="fil64" points="227,36 227,35 496,130 496,131 "/>
     <polygon id="159" class="fil64" points="227,35 228,34 497,129 496,130 "/>
     <polygon id="160" class="fil64" points="228,34 228,33 497,128 497,129 "/>
     <polygon id="161" class="fil64" points="228,34 228,32 497,127 497,129 "/>
     <polygon id="162" class="fil64" points="228,33 229,32 497,127 497,128 "/>
     <polygon id="163" class="fil64" points="228,32 229,31 498,126 497,127 "/>
     <polygon id="164" class="fil64" points="229,31 229,30 498,125 498,126 "/>
     <polygon id="165" class="fil64" points="229,30 229,29 498,124 498,125 "/>
     <polygon id="166" class="fil64" points="229,30 230,28 499,123 498,125 "/>
     <polygon id="167" class="fil64" points="230,29 230,28 499,123 498,124 "/>
     <polygon id="168" class="fil64" points="230,28 230,27 499,122 499,123 "/>
     <polygon id="169" class="fil64" points="230,27 231,26 499,121 499,122 "/>
     <polygon id="170" class="fil64" points="230,26 231,25 500,120 499,121 "/>
     <polygon id="171" class="fil64" points="231,26 231,24 500,119 500,121 "/>
     <polygon id="172" class="fil64" points="231,25 231,24 500,119 500,120 "/>
     <polygon id="173" class="fil64" points="231,24 232,23 501,118 500,119 "/>
     <polygon id="174" class="fil64" points="232,23 232,22 501,117 500,118 "/>
     <polygon id="175" class="fil64" points="232,22 232,21 501,116 501,117 "/>
     <polygon id="176" class="fil64" points="232,22 233,20 501,115 501,117 "/>
     <polygon id="177" class="fil64" points="232,21 233,20 502,115 501,116 "/>
     <polygon id="178" class="fil64" points="233,20 233,19 502,114 502,115 "/>
     <polygon id="179" class="fil64" points="233,19 233,18 502,113 502,114 "/>
     <polygon id="180" class="fil64" points="233,18 234,17 503,112 502,113 "/>
     <polygon id="181" class="fil64" points="234,18 234,16 503,111 502,113 "/>
     <polygon id="182" class="fil64" points="234,17 234,16 503,111 503,112 "/>
     <polygon id="183" class="fil64" points="234,16 234,15 503,110 503,111 "/>
     <polygon id="184" class="fil64" points="234,15 235,14 504,109 503,110 "/>
     <polygon id="185" class="fil64" points="235,14 235,13 504,108 504,109 "/>
     <polygon id="186" class="fil64" points="235,14 235,12 504,107 504,109 "/>
     <polygon id="187" class="fil64" points="235,13 236,12 505,107 504,108 "/>
     <polygon id="188" class="fil64" points="235,12 236,11 505,106 504,107 "/>
     <polygon id="189" class="fil64" points="236,11 236,10 505,105 505,106 "/>
     <polygon id="190" class="fil64" points="236,10 236,9 505,104 505,105 "/>
     <polygon id="191" class="fil64" points="236,10 237,9 506,103 505,105 "/>
     <polygon id="192" class="fil64" points="237,9 237,8 506,103 506,104 "/>
     <polygon id="193" class="fil64" points="237,8 237,7 506,102 506,103 "/>
     <polygon id="194" class="fil64" points="237,7 238,6 507,101 506,102 "/>
     <polygon id="195" class="fil64" points="237,7 238,5 507,100 506,102 "/>
     <polygon id="196" class="fil64" points="238,6 238,5 507,100 507,101 "/>
     <polygon id="197" class="fil64" points="238,5 238,4 507,99 507,100 "/>
     <polygon id="198" class="fil64" points="238,4 239,3 508,98 507,99 "/>
     <polygon id="199" class="fil64" points="239,3 239,2 508,97 507,98 "/>
     <polygon id="200" class="fil65" points="239,3 239,1 508,96 508,98 "/>
     <polygon id="201" class="fil65" points="239,2 240,1 508,96 508,97 "/>
     <polygon id="202" class="fil65" points="239,1 240,0 509,95 508,96 "/>
     <polygon id="203" class="fil65" points="240,0 240,-1 509,94 509,95 "/>
     <polygon id="204" class="fil66" points="240,-1 240,-2 509,93 509,94 "/>
     <polygon id="205" class="fil66" points="240,-1 241,-3 510,92 509,94 "/>
     <polygon id="206" class="fil66" points="241,-2 241,-3 510,92 509,93 "/>
     <polygon id="207" class="fil66" points="241,-3 241,-4 510,91 510,92 "/>
     <polygon id="208" class="fil66" points="241,-4 242,-5 510,90 510,91 "/>
     <polygon id="209" class="fil66" points="241,-5 242,-6 511,89 510,90 "/>
     <polygon id="210" class="fil66" points="242,-5 242,-7 511,88 511,90 "/>
     <polygon id="211" class="fil66" points="242,-6 242,-7 511,88 511,89 "/>
     <polygon id="212" class="fil66" points="242,-7 243,-8 512,87 511,88 "/>
     <polygon id="213" class="fil66" points="243,-8 243,-9 512,86 511,87 "/>
     <polygon id="214" class="fil66" points="243,-9 243,-10 512,85 512,86 "/>
     <polygon id="215" class="fil66" points="243,-9 243,-11 512,84 512,86 "/>
     <polygon id="216" class="fil66" points="243,-10 244,-11 513,84 512,85 "/>
     <polygon id="217" class="fil66" points="244,-11 244,-11 513,84 513,84 "/>
    </g>
    <path id="218" class="fil67 str1" d="M343 216c39,0 72,0 109,0 6,0 -11,0 13,0 1,0 1,-2 1,-3 0,-5 0,-5 0,-10 0,-5 -4,-8 -10,-13 -55,-50 -128,-122 -185,-175 -8,-8 -27,-28 -27,-4 0,15 0,9 0,22 0,22 0,25 4,30 2,3 5,7 9,10 3,3 8,6 12,9 2,1 21,10 22,11 7,5 10,7 17,13 4,3 8,7 11,11 3,5 6,7 9,12 3,4 6,9 8,14 2,4 4,10 5,16 1,6 2,12 2,19 0,4 0,10 0,15 0,6 -2,20 -1,19z"/>
   </g>
  </g>
 </g>
</svg>
